<svg id="eNH5d6K2ELY1" xmlns="http://www.w3.org/2000/svg" xmlns:xlink="http://www.w3.org/1999/xlink" viewBox="0 0 471.91 491.86" shape-rendering="geometricPrecision" text-rendering="geometricPrecision"><style><![CDATA[#eNH5d6K2ELY2_tr {animation: eNH5d6K2ELY2_tr__tr 5000ms linear infinite normal forwards}@keyframes eNH5d6K2ELY2_tr__tr { 0% {transform: translate(235.955px,235.872712px) rotate(0deg)} 100% {transform: translate(235.955px,235.872712px) rotate(360deg)}}]]></style><g id="eNH5d6K2ELY2_tr" transform="translate(235.955,235.872712) rotate(0)"><path d="M369.92,82.79c4.05-1.63,7.82-3.31,11.7-4.64c2.066932-.652895,4.213545-1.019636,6.38-1.09c3.189193-.229968,6.390807-.229968,9.58,0c3.323735.293779,6.591134,1.04417,9.71,2.23c3.190493,1.192538,6.231029,2.753078,9.06,4.65c5.092663,3.409925,9.404194,7.861197,12.65,13.06c1.872626,2.919064,3.342569,6.077592,4.37,9.39c1.857594,5.62086,2.488439,11.574669,1.85,17.46-.345643,3.465158-1.118164,6.874324-2.3,10.15-.8,2-1.71,4-2.65,6-.673186,1.197757-.623057,2.67078.13,3.82c3,4.93,6,9.84,8.75,14.9c2.39,4.42,4.39,9,6.59,13.56c2.45964,5.320341,4.551221,10.803225,6.26,16.41.74,2.24,1.75,4.38,2.53,6.61.49,1.41.79,2.9,1.15,4.36c1.08,4.39,2.17,8.78,3.23,13.19.198752,1.111535,1.061299,1.986006,2.17,2.2c6.083626,1.69752,11.692817,4.777613,16.39,9c4.488541,3.975932,8.110399,8.833443,10.64,14.27c1.45202,3.396495,2.593351,6.917552,3.41,10.52.6,2.35.38,4.92.4,7.4.047135,2.156406-.036351,4.313687-.25,6.46-.240855,1.724862-.622122,3.427182-1.14,5.09-.853489,2.951243-2.009628,5.806403-3.45,8.52-2.712825,5.162641-6.456802,9.713276-11,13.37-2.926743,2.241223-6.076724,4.174775-9.4,5.77-1.281754.605194-2.622067,1.077654-4,1.41-2.16.59-3.52,1.56-3.94,4.1-.56,3.43-1.76,6.75-2.66,10.13-.73,2.74-1.33,5.52-2.17,8.23-1,3.15-2.16,6.25-3.27,9.36-.7,1.93-1.35,3.88-2.17,5.76-1.5,3.49-3,7-4.69,10.38-2,4.09-4.3,8-6.09,12.2-1.91,4.46-4.88,8.26-7.15,12.48-.448007.635661-.448007,1.484339,0,2.12c1.949344,3.333806,3.3791,6.945288,4.24,10.71.777998,3.260463,1.230218,6.590141,1.35,9.94-.011997,6.591505-1.487509,13.098103-4.32,19.05-2.549467,5.588937-6.45426,10.452742-11.36,14.15-2.493026,1.946529-5.134406,3.695189-7.9,5.23-2.786032,1.446733-5.742405,2.538576-8.8,3.25-3.690882.951237-7.488539,1.425104-11.3,1.41-3.304258-.048568-6.58958-.508781-9.78-1.37-3.556216-.943639-6.994625-2.285457-10.25-4-1.030424-.504318-2.252291-.416497-3.2.23-5,3-9.92,6-15,8.82-3,1.66-6.07,3.07-9.16,4.48-3.33,1.53-6.67,3-10.08,4.35-4.34,1.71-8.74,3.28-13.15,4.83-2.91,1-5.85,2-8.81,2.81-2,.56-4,.85-6,1.32-2.59.62-5.18,1.24-7.74,2-.544658.264107-.964526.730627-1.17,1.3-.69,1.58-1.28,3.21-1.86,4.84-1.144624,3.261659-2.835374,6.305009-5,9-1.58,2-3.18,3.93-4.91,5.75-3.802988,3.81861-8.341195,6.825938-13.34,8.84-9.876944,4.049973-20.882574,4.404994-31,1-3.088107-1.200612-6.038354-2.729377-8.8-4.56-7.455051-4.690487-13.223528-11.632273-16.47-19.82-.66-1.6-1.09-3.3-1.78-4.88-.324072-.675282-.852332-1.231529-1.51-1.59-.850322-.393272-1.747678-.675586-2.67-.84-1.84-.43-3.7-.79-5.54-1.2-1.54-.35-3.08-.69-4.6-1.11-5.645914-1.566698-11.198204-3.453074-16.63-5.65-1.9-.77-3.89-1.31-5.78-2.1-3.44-1.44-6.82-3-10.26-4.49-8.43-3.59-16.13-8.49-23.95-13.18-1.076036-.762672-2.502164-.813745-3.63-.13-3.5,2.26-7.53,3.08-11.35,4.49-.075372.019923-.154628.019923-.23,0-4.34-.13-8.62,1.85-13,.4-.780232-.177016-1.580826-.247657-2.38-.21-3.26-.17-6.28-1.3-9.33-2.34-4.16-1.42-7.77-3.93-11.42-6.23-3.94-2.48-6.79-6.29-9.36-10.18-2.094808-3.134435-3.706171-6.566167-4.78-10.18-1.45-5-2.52-10.12-2-15.32s1.41-10.32,3.71-15.09c.47-1,.94-2,1.47-2.93.734867-1.158255.679184-2.649763-.14-3.75-3.11-5-6.21-10.07-9-15.25-2-3.58-3.52-7.38-5.17-11.12s-3.16-7.23-4.59-10.91c-1.31-3.38-2.44-6.83-3.62-10.27-.91-2.68-1.8-5.37-2.63-8.08-.44-1.44-.73-2.92-1.08-4.38-.74-3.08-1.48-6.15-2.19-9.23-.090719-.806305-.659597-1.477898-1.44-1.7-1.22-.36-2.41-.8-3.6-1.26-11.904246-4.436259-21.293741-13.825754-25.73-25.73-1.874868-5.086725-2.661815-10.510182-2.31-15.92.004979-.079923.004979-.160077,0-.24.015206-3.790245.619071-7.555127,1.79-11.16.977283-3.240098,2.358114-6.344449,4.11-9.24c3.650041-6.106855,8.768458-11.204646,14.89-14.83c3.150062-1.943072,6.570492-3.40897,10.15-4.35c1.116255-.196257,1.979761-1.088008,2.14-2.21c1.21-4.75,2.66-9.44,3.72-14.22s3.15-9.42,4.64-14.16c2.7-8.63,7-16.56,10.7-24.75C74,156,76.47,152.57,78.57,149c1-1.68,1.92-3.43,3-5c.925122-1.151696.99794-2.769867.18-4-2.094125-3.532779-3.543351-7.409798-4.28-11.45-.973751-4.447966-1.206882-9.026127-.69-13.55.592288-4.559743,1.80344-9.017455,3.6-13.25c1.199809-2.646306,2.699641-5.146025,4.47-7.45c4.017514-5.592975,9.360638-10.101129,15.55-13.12c3.202929-1.583632,6.593107-2.756251,10.09-3.49c3.301846-.571095,6.649439-.835554,10-.79c6.481291-.009893,12.86432,1.584146,18.58,4.64.91.45,1.8.94,2.83,1.47c3.82-2.31,7.7-4.61,11.54-7c5.012479-2.91953,10.187568-5.550479,15.5-7.88c2.44-1.15,4.88-2.3,7.35-3.36q3.34-1.42,6.76-2.66c2.36-.85,4.74-1.62,7.13-2.37c3.93-1.23,7.85-2.49,11.82-3.6c3.29-.92,6.63-1.63,9.94-2.48c1.649967-.353029,2.917902-1.676437,3.2-3.34c1.133678-4.280608,3.127557-8.285379,5.86-11.77c1.925971-2.480603,3.982194-4.857276,6.16-7.12c3.140179-3.063586,6.813879-5.527406,10.84-7.27c8.28389-3.907125,17.617903-4.999254,26.58-3.11c3.630217.780796,7.150167,2.006733,10.48,3.65c5.064638,2.52532,9.580965,6.025558,13.29,10.3c2.971892,3.478936,5.4425,7.356512,7.34,11.52.621161,1.192698,1.040181,2.480172,1.24,3.81.27,2.26,1.76,3,3.62,3.51c5.7,1.45,11.44,2.76,17.09,4.38c3.31,1,6.47,2.42,9.71,3.62c1.91.71,3.86,1.27,5.75,2c2.56,1,5.13,2,7.63,3.21c4,1.87,8,3.7,11.93,5.8c5.11,2.77,10.07,5.79,15.09,8.7ZM160.5,406.71c6.05,3.42,11.88,7.07,18.14,10c6.137677,2.941846,12.430232,5.549,18.85,7.81c6.558111,2.340812,13.279596,4.195822,20.11,5.55.65-1.06,1.1-1.9,1.65-2.67c1.823301-2.832878,3.827463-5.545178,6-8.12c3.981729-4.283957,8.828928-7.672225,14.22-9.94c4.08485-1.72013,8.395485-2.844936,12.8-3.34c3.888334-.408911,7.816165-.226848,11.65.54c3.733196.622146,7.363596,1.75265,10.79,3.36c7.853415,3.689915,14.36681,9.728083,18.64,17.28.57,1,1.3,2,1.92,2.86.301358-.000037.60226-.023441.9-.07c5.21-1.41,10.46-2.69,15.61-4.3c5.389779-1.640703,10.68169-3.587191,15.85-5.83c7.782903-3.394483,15.318068-7.330814,22.55-11.78c2.11-1.31,2.3-1.76,1.58-4-1.229903-3.630519-1.861472-7.436822-1.87-11.27-.016379-2.791388.238147-5.577778.76-8.32.789735-4.119527,2.135369-8.112696,4-11.87c3.85159-7.570642,9.898644-13.802419,17.35-17.88c2.294009-1.393296,4.780681-2.441202,7.38-3.11c2.13-.49,4.21-1.55,6.34-1.67c4.78-.26,9.59-.11,14.38-.07.619707.074105,1.22774.225274,1.81.45l5.24,1.38c5.646531-8.528973,10.426931-17.60068,14.27-27.08c3.955229-9.466457,7.002249-19.287237,9.1-29.33-.524701-.505811-1.101214-.954955-1.72-1.34-12.86466-6.832942-21.407442-19.701661-22.71-34.21-1.032256-14.407082,5.190658-28.379568,16.59-37.25c2.048941-1.552051,4.185834-2.984437,6.4-4.29c1-.6,1.4-1.1,1.07-2.24-.46-1.59-.82-3.21-1.22-4.83-.560187-2.948125-1.308381-5.857398-2.24-8.71-2.55-6.55-4.75-13.23-7.69-19.65-3.33-7.27-7.27-14.16-11.21-21.08-.319759-.763713-1.143211-1.185996-1.95-1l-2.59.47c-3.05.52-6.08,1.28-9.15,1.51-4.460168.164949-8.917671-.392238-13.2-1.65-3.183579-.793206-6.247224-2.00723-9.11-3.61-4.686277-2.627744-8.851662-6.091554-12.29-10.22-3.932959-4.825632-6.832875-10.407629-8.52-16.4-1.45-4.76-1.39-9.63-1.15-14.49.189164-2.136868.523266-4.258418,1-6.35.29-1.53.73-3,1.11-4.58-4.39-2.54-8.52-5.17-12.86-7.35-6.19-3.12-12.38-6.29-19-8.54-4-1.37-7.91-3-11.94-4.29-3.76-1.18-7.62-2-11.45-3-1.51-.38-1.91-.15-2.79,1.35-1.85956,3.222773-4.055133,6.23959-6.55,9-4.579968,5.02307-10.315605,8.853693-16.71,11.16-2.889571,1.133713-5.915389,1.883443-9,2.23-5.005751.581292-10.072938.338067-15-.72-6.079068-1.430134-11.787172-4.12913-16.75-7.92-4.797811-3.755923-8.799058-8.430277-11.77-13.75-.86-1.49-1.32-1.69-2.83-1.31-2.53.63-5,1.3-7.58,2-1.44.38-2.91.72-4.33,1.19-2.51.84-5,1.73-7.49,2.64-3,1.12-6.11,2.18-9.08,3.47-4.05,1.75-8.1,3.56-12,5.61-4.93,2.58-9.71,5.44-14.63,8.21.15.8.2,1.42.38,2c.971398,3.027124,1.552755,6.165779,1.73,9.34.3,6.94-.39,13.67-3.23,20.09-2.633013,6.194846-6.726193,11.660425-11.93,15.93-1.643536,1.344382-3.363042,2.593111-5.15,3.74-3.203123,2.094895-6.740715,3.626949-10.46,4.53-2.16.49-4.35.82-6.52,1.29-3.442526.734894-6.999262.755315-10.45.06-2.65-.52-5.31-1-7.94-1.53-.937096-.303067-1.955346.121204-2.4,1-2,3.63-4.26,7.19-6.15,10.9-3.093567,5.737102-5.786659,11.681283-8.06,17.79-1.31,3.74-2.79,7.42-4.07,11.17-1,2.91-1.87,5.87-2.66,8.85-.6,2.28-1,4.62-1.45,6.87.609287.507424,1.258003.965538,1.94,1.37c3.520126,1.791894,6.717206,4.157597,9.46,7c4.61566,4.456931,8.116831,9.938216,10.22,16c2.714738,7.002739,3.377286,14.634186,1.91,22-.799064,4.348081-2.238025,8.553756-4.27,12.48-3.784799,7.135435-9.512301,13.053622-16.52,17.07-3.55,2.05-2.58,1.49-2.28,5.05.061109.312327.15496.617344.28.91.5,1.74,1,3.48,1.49,5.23.57,2.07,1,4.16,1.69,6.19.82,2.57,1.75,5.11,2.65,7.65.647627,2.121336,1.422362,4.201765,2.32,6.23c2.33,4.59,4,9.47,7,13.77s5.16,8.82,7.71,13.27c16.71-4.41,32.08-2.45,44.61,10.15s15.69,27.58,10.47,44.96Z" transform="translate(-256.083366,-256.012712)" fill="#fff"/></g><path d="M367,512c-6.05-2.6-9.26-7.5-11.77-13.39q-24-56.46-48.4-112.78c-14.9-34.32-30.09-68.52-45.3-102.7-.7-1.6-2.93-3.63-4.31-3.53-2.06886.395124-3.84395,1.713551-4.82,3.58-14,31.66-27.7,63.42-41.5,95.15q-26.15,60.12-52.23,120.27c-2.54,5.87-5.73,10.77-11.75,13.4h-64c-1.26-.74-2.55-1.44-3.78-2.22-5.098816-3.195932-7.633912-9.255333-6.33-15.13c1.115793-5.546391,5.510508-9.845914,11.08-10.84c2.134343-.357108,4.296126-.524429,6.46-.5c13.16,0,26.33-.12,39.5.05c3.14,0,4.72-1,5.95-3.89c7.43-17.45,15-34.83,22.58-52.22q33.53-77.08,67.15-154.13c1.57-3.58,1.21-5.72-1.31-8.72-9.95166-11.530983-13.060597-27.466203-8.173119-41.892278s17.041985-25.190122,31.953119-28.297722c16.73-3.69,36,4.49,45,19.1c9.85,16,8.93,36-2.82,49.86-3.17,3.74-3.39,6.54-1.45,10.95q35.94,82.26,71.5,164.69c5.89,13.58,12,27.06,17.83,40.66c1.24,2.89,2.81,3.93,6,3.89c13.33-.16,26.67-.24,40,0c11,.19,17.75,9.05,14.74,18.72-1.56,5-5.56,7.61-9.84,9.92Z" transform="translate(-20.12837-20.14)" fill="#fff"/></svg>